# xmcd
#
# Track frame offsets:
#	183
#	15855
#	35378
#
# Disc length: 657 seconds
#
# Revision: 0
# Processed by: cddbd v1.5.1PL2 Copyright (c) Steve Scherf et al.
# Submitted via: MusicManager 7.3.0.0 
#
DISCID=12028f03
DTITLE=Garth Brooks - What she's doing now
DYEAR=1991
DGENRE=country
TTITLE0=What she's doing now
TTITLE1=Shameless
TTITLE2=We bury the hatchet
EXTD=
EXTT0=
EXTT1=
EXTT2=
PLAYORDER=
